# xmcd
#
# Track frame offsets: 
#        150
#        600
#        4486
#        24969
#        42345
#        49709
#        68776
#        84856
#        89059
#        108135
#        128032
#        147757
#        157208
#        172148
#        195406
#        212835
#        230397
#        254820
#
# Disc length: 3671 seconds
#
# Revision: 0
# Processed by: cddbd v1.5.2PL0 Copyright (c) Steve Scherf et al.
# Submitted via: ExactAudioCopyFreeDBPlugin 1.0
#
DISCID=f40e5512
DTITLE=Carl Thomas - Emotional
DYEAR=2000
DGENRE=R&B
TTITLE0=Untitled
TTITLE1=Intro
TTITLE2=Emotional
TTITLE3=I Wish
TTITLE4=Anything
TTITLE5=My Valentine
TTITLE6=Giving You All My Love
TTITLE7=Cadillac Rap
TTITLE8=Woke Up In The Morning
TTITLE9=Come To Me
TTITLE10=Cold, Cold World
TTITLE11=Trouble Won't Last
TTITLE12=You Ain't Right
TTITLE13=Lady Lay Your Body
TTITLE14=Supastar
TTITLE15=Summer Rain
TTITLE16=Hey Now
TTITLE17=Special Lady
EXTD=
EXTT0=
EXTT1=
EXTT2=
EXTT3=
EXTT4=
EXTT5=
EXTT6=
EXTT7=
EXTT8=
EXTT9=
EXTT10=
EXTT11=
EXTT12=
EXTT13=
EXTT14=
EXTT15=
EXTT16=
EXTT17=
PLAYORDER=
